<svg width="15.448mm" height="5.292mm" version="1.1" viewBox="0 0 15.448 5.292" xmlns="http://www.w3.org/2000/svg" xmlns:xlink="http://www.w3.org/1999/xlink"><g transform="translate(-.093487 -1.8038)"><text fill="#ffffff" font-family="'Times New Roman'" font-size="10.583px" letter-spacing=".98954px" word-spacing="0px" style="line-height:1.25;shape-inside:url(#rect837);white-space:pre" xml:space="preserve"/><g stroke-width=".26458" aria-label="Holly"><path d="m9.0576 5.7953v-2.6929h0.34634v2.6929zm-1.5558 0v-2.6929h0.34634v2.6929zm0.24818-1.2242v-0.313h1.3705l-0.00556 0.313z"/><path d="m10.754 5.8231q-0.2667 0-0.46858-0.12039-0.20002-0.12039-0.313-0.35375-0.11113-0.23521-0.11113-0.576 0-0.32226 0.11853-0.55563 0.11853-0.23336 0.32226-0.35745 0.20558-0.12594 0.45932-0.12594 0.27596 0 0.47598 0.12594 0.20188 0.12409 0.31115 0.35745 0.10927 0.23336 0.10927 0.55563 0 0.34078-0.12224 0.576-0.12038 0.23336-0.32597 0.35375-0.20558 0.12039-0.45561 0.12039zm0.0074-0.30374q0.24818 0 0.39635-0.18521t0.14817-0.56118q0-0.3593-0.14632-0.54636-0.14446-0.18891-0.40561-0.18891-0.24633 0-0.39449 0.18891-0.14632 0.18706-0.14632 0.54636 0 0.36301 0.14817 0.55563 0.15002 0.19076 0.40005 0.19076z"/><path d="m12.128 5.7953v-2.88h0.34449v2.88z"/><path d="m13.088 5.7953v-2.88h0.34449v2.88z"/><path d="m13.953 6.5936v-0.32967h0.15002q0.13335 0 0.20558-0.033338 0.07408-0.031485 0.11112-0.090752 0.03704-0.059267 0.05927-0.14076 0.02778-0.098161 0.05001-0.14261 0.02223-0.042598 0.05741-0.061119h-0.11113l-0.67786-2.0206h0.38338l0.25744 0.90567 0.22781 0.76491h0.01482l0.2204-0.76491 0.25744-0.90567h0.38338l-0.67972 2.0206q-0.06112 0.18336-0.12039 0.32967-0.05927 0.14817-0.13891 0.25188-0.07964 0.10557-0.20002 0.16113-0.11853 0.055563-0.30004 0.055563z"/></g><g transform="matrix(.3528 0 0 .3528 .093487 1.8038)"><rect x="7" width="1" height="1" fill="#ba0000" fill-opacity=".26274"/><rect x="8" width="1" height="1" fill="#bc0000" fill-opacity=".69804"/><rect x="9" width="1" height="1" fill="#bc0000" fill-opacity=".69804"/><rect x="10" width="1" height="1" fill="#ba0000" fill-opacity=".26274"/><rect x="7" y="1" width="1" height="1" fill="#a00000" fill-opacity=".69804"/><rect x="8" y="1" width="1" height="1" fill="#f4c5c9" fill-opacity=".97255"/><rect x="9" y="1" width="1" height="1" fill="#e73242" fill-opacity=".9451"/><rect x="10" y="1" width="1" height="1" fill="#a00000" fill-opacity=".69804"/><rect x="7" y="2" width="1" height="1" fill="#800000" fill-opacity=".69804"/><rect x="8" y="2" width="1" height="1" fill="#dd3746" fill-opacity=".98824"/><rect x="9" y="2" width="1" height="1" fill="#dd3746" fill-opacity=".98824"/><rect x="10" y="2" width="1" height="1" fill="#890000" fill-opacity=".80392"/><rect x="11" y="2" width="1" height="1" fill="#bc0000" fill-opacity=".69804"/><rect x="12" y="2" width="1" height="1" fill="#bc0000" fill-opacity=".69804"/><rect x="13" y="2" width="1" height="1" fill="#ba0000" fill-opacity=".26274"/><rect x="2" y="3" width="1" height="1" fill="#047304" fill-opacity=".27059"/><g fill="#037503"><rect x="3" y="3" width="1" height="1" fill-opacity=".60784"/><rect x="4" y="3" width="1" height="1" fill-opacity=".73333"/><rect x="5" y="3" width="1" height="1" fill-opacity=".7451"/></g><rect x="6" y="3" width="1" height="1" fill="#0f6e03" fill-opacity=".75686"/><rect x="7" y="3" width="1" height="1" fill="#712802" fill-opacity=".90196"/><rect x="8" y="3" width="1" height="1" fill="#b41414"/><rect x="9" y="3" width="1" height="1" fill="#b41414"/><rect x="10" y="3" width="1" height="1" fill="#b01a1a"/><rect x="11" y="3" width="1" height="1" fill="#f2c2c4" fill-opacity=".99608"/><rect x="12" y="3" width="1" height="1" fill="#de2735" fill-opacity=".9451"/><rect x="13" y="3" width="1" height="1" fill="#a00000" fill-opacity=".69804"/><rect x="1" y="4" width="1" height="1" fill="#046d04" fill-opacity=".27451"/><rect x="2" y="4" width="1" height="1" fill="#167d14" fill-opacity=".76863"/><rect x="3" y="4" width="1" height="1" fill="#6ac35d" fill-opacity=".94118"/><rect x="4" y="4" width="1" height="1" fill="#82d872" fill-opacity=".99608"/><rect x="5" y="4" width="1" height="1" fill="#6bc05e"/><rect x="6" y="4" width="1" height="1" fill="#a07741"/><rect x="7" y="4" width="1" height="1" fill="#c94f49"/><rect x="8" y="4" width="1" height="1" fill="#f88590"/><rect x="9" y="4" width="1" height="1" fill="#f7394d"/><rect x="10" y="4" width="1" height="1" fill="#d02329"/><rect x="11" y="4" width="1" height="1" fill="#cd151d" fill-opacity=".99216"/><rect x="12" y="4" width="1" height="1" fill="#cf212d" fill-opacity=".9451"/><rect x="13" y="4" width="1" height="1" fill="#800000" fill-opacity=".69804"/><rect x="1" y="5" width="1" height="1" fill="#026102" fill-opacity=".61961"/><rect x="2" y="5" width="1" height="1" fill="#59b151" fill-opacity=".94118"/><rect x="3" y="5" width="1" height="1" fill="#6ec364"/><rect x="4" y="5" width="1" height="1" fill="#499e42"/><rect x="5" y="5" width="1" height="1" fill="#63b85a"/><rect x="6" y="5" width="1" height="1" fill="#ab331c"/><rect x="7" y="5" width="1" height="1" fill="#f28089"/><rect x="8" y="5" width="1" height="1" fill="#fbbac2"/><rect x="9" y="5" width="1" height="1" fill="#f10d2a"/><rect x="10" y="5" width="1" height="1" fill="#ef3042"/><rect x="11" y="5" width="1" height="1" fill="#ad0404" fill-opacity=".93726"/><rect x="12" y="5" width="1" height="1" fill="#6b0000" fill-opacity=".69804"/><rect x="13" y="5" width="1" height="1" fill="#6e0000" fill-opacity=".26274"/><rect x="1" y="6" width="1" height="1" fill="#035403" fill-opacity=".75294"/><rect x="2" y="6" width="1" height="1" fill="#55aa51" fill-opacity=".99608"/><rect x="3" y="6" width="1" height="1" fill="#3f943b"/><rect x="4" y="6" width="1" height="1" fill="#52a74d" fill-opacity=".99608"/><rect x="5" y="6" width="1" height="1" fill="#54a74c" fill-opacity=".9451"/><rect x="6" y="6" width="1" height="1" fill="#a02214"/><rect x="7" y="6" width="1" height="1" fill="#e82b3c"/><rect x="8" y="6" width="1" height="1" fill="#e20820"/><rect x="9" y="6" width="1" height="1" fill="#e20820"/><rect x="10" y="6" width="1" height="1" fill="#e82b3b"/><rect x="11" y="6" width="1" height="1" fill="#9a1806" fill-opacity=".9451"/><rect x="12" y="6" width="1" height="1" fill="#026602" fill-opacity=".61569"/><rect x="13" y="6" width="1" height="1" fill="#046204" fill-opacity=".27451"/><rect y="7" width="1" height="1" fill="#003c00" fill-opacity=".29804"/><g fill="#013c01" fill-opacity=".78824"><rect x="1" y="7" width="1" height="1"/><rect x="2" y="7" width="1" height="1"/><rect x="3" y="7" width="1" height="1"/></g><rect x="4" y="7" width="1" height="1" fill="#024d02" fill-opacity=".83922"/><rect x="5" y="7" width="1" height="1" fill="#036403" fill-opacity=".87843"/><rect x="6" y="7" width="1" height="1" fill="#754a1e"/><rect x="7" y="7" width="1" height="1" fill="#c32424"/><rect x="8" y="7" width="1" height="1" fill="#e02332"/><rect x="9" y="7" width="1" height="1" fill="#e02333"/><rect x="10" y="7" width="1" height="1" fill="#c42525"/><rect x="11" y="7" width="1" height="1" fill="#9c703e"/><rect x="12" y="7" width="1" height="1" fill="#6bc25d" fill-opacity=".94118"/><rect x="13" y="7" width="1" height="1" fill="#166f13" fill-opacity=".78039"/><rect x="14" y="7" width="1" height="1" fill="#045a04" fill-opacity=".27843"/><rect x="3" y="8" width="1" height="1" fill="#046d04" fill-opacity=".27451"/><rect x="4" y="8" width="1" height="1" fill="#178014" fill-opacity=".76863"/><rect x="5" y="8" width="1" height="1" fill="#6bc55d" fill-opacity=".94118"/><rect x="6" y="8" width="1" height="1" fill="#86ce6f"/><rect x="7" y="8" width="1" height="1" fill="#6e4015"/><rect x="8" y="8" width="1" height="1" fill="#9a1c0d"/><rect x="9" y="8" width="1" height="1" fill="#a8281a"/><rect x="10" y="8" width="1" height="1" fill="#8b5c30"/><rect x="11" y="8" width="1" height="1" fill="#2f7723"/><rect x="12" y="8" width="1" height="1" fill="#76cb6a"/><rect x="13" y="8" width="1" height="1" fill="#66bb5b" fill-opacity=".9451"/><rect x="14" y="8" width="1" height="1" fill="#025402" fill-opacity=".62745"/><rect x="3" y="9" width="1" height="1" fill="#036803" fill-opacity=".61569"/><rect x="4" y="9" width="1" height="1" fill="#63bb57" fill-opacity=".94118"/><rect x="5" y="9" width="1" height="1" fill="#76cb6a"/><rect x="6" y="9" width="1" height="1" fill="#33882e"/><rect x="7" y="9" width="1" height="1" fill="#6ec360"/><rect x="8" y="9" width="1" height="1" fill="#036903" fill-opacity=".90588"/><rect x="9" y="9" width="1" height="1" fill="#53ab4c" fill-opacity=".94118"/><rect x="10" y="9" width="1" height="1" fill="#62b75b"/><rect x="11" y="9" width="1" height="1" fill="#54a94e"/><rect x="12" y="9" width="1" height="1" fill="#3b9036"/><rect x="13" y="9" width="1" height="1" fill="#6fc464" fill-opacity=".99608"/><rect x="14" y="9" width="1" height="1" fill="#034c03" fill-opacity=".76078"/><rect x="3" y="10" width="1" height="1" fill="#016101" fill-opacity=".7451"/><rect x="4" y="10" width="1" height="1" fill="#66bb5d" fill-opacity=".99608"/><rect x="5" y="10" width="1" height="1" fill="#3f943a"/><rect x="6" y="10" width="1" height="1" fill="#62b758"/><rect x="7" y="10" width="1" height="1" fill="#78cd6b" fill-opacity=".99608"/><rect x="8" y="10" width="1" height="1" fill="#026102" fill-opacity=".81569"/><rect x="9" y="10" width="1" height="1" fill="#0f6d0e" fill-opacity=".77647"/><rect x="10" y="10" width="1" height="1" fill="#479d42" fill-opacity=".9451"/><rect x="11" y="10" width="1" height="1" fill="#57ac52" fill-opacity=".99608"/><rect x="12" y="10" width="1" height="1" fill="#57ac51"/><rect x="13" y="10" width="1" height="1" fill="#63b85a"/><rect x="14" y="10" width="1" height="1" fill="#014101" fill-opacity=".78824"/><rect x="3" y="11" width="1" height="1" fill="#035703" fill-opacity=".76863"/><rect x="4" y="11" width="1" height="1" fill="#459a41"/><rect x="5" y="11" width="1" height="1" fill="#56ab50"/><rect x="6" y="11" width="1" height="1" fill="#5eb358"/><rect x="7" y="11" width="1" height="1" fill="#5aaf51" fill-opacity=".9451"/><rect x="8" y="11" width="1" height="1" fill="#025702" fill-opacity=".62353"/><rect x="9" y="11" width="1" height="1" fill="#045f04" fill-opacity=".27451"/><rect x="10" y="11" width="1" height="1" fill="#025802" fill-opacity=".62353"/><rect x="11" y="11" width="1" height="1" fill="#035503" fill-opacity=".75686"/><rect x="12" y="11" width="1" height="1" fill="#034c03" fill-opacity=".77647"/><rect x="13" y="11" width="1" height="1" fill="#014101" fill-opacity=".78824"/><rect x="14" y="11" width="1" height="1" fill="#013701" fill-opacity=".79608"/><rect x="3" y="12" width="1" height="1" fill="#014901" fill-opacity=".77647"/><rect x="4" y="12" width="1" height="1" fill="#4fa44c"/><rect x="5" y="12" width="1" height="1" fill="#52a74f" fill-opacity=".99608"/><rect x="6" y="12" width="1" height="1" fill="#499a44" fill-opacity=".94902"/><rect x="7" y="12" width="1" height="1" fill="#10590f" fill-opacity=".79608"/><rect x="8" y="12" width="1" height="1" fill="#003900" fill-opacity=".28235"/><rect x="14" y="12" width="1" height="1" fill="#001700" fill-opacity=".30196"/><rect x="1" y="13" width="1" height="1" fill-opacity=".031372"/><rect x="2" y="13" width="1" height="1" fill="#001900" fill-opacity=".36078"/><g fill="#013501"><rect x="3" y="13" width="1" height="1" fill-opacity=".79216"/><rect x="4" y="13" width="1" height="1" fill-opacity=".79216"/><rect x="5" y="13" width="1" height="1" fill-opacity=".78039"/></g><rect x="6" y="13" width="1" height="1" fill="#023302" fill-opacity=".66274"/><rect x="7" y="13" width="1" height="1" fill="#002000" fill-opacity=".37647"/><g><rect x="8" y="13" width="1" height="1" fill-opacity=".14902"/><rect x="9" y="13" width="1" height="1" fill-opacity=".12941"/><rect x="10" y="13" width="1" height="1" fill-opacity=".10588"/><rect x="11" y="13" width="1" height="1" fill-opacity=".082353"/><rect x="12" y="13" width="1" height="1" fill-opacity=".058824"/><rect x="13" y="13" width="1" height="1" fill-opacity=".035294"/><rect x="14" y="13" width="1" height="1" fill-opacity=".019608"/><rect x="1" y="14" width="1" height="1" fill-opacity=".015686"/><rect x="2" y="14" width="1" height="1" fill-opacity=".066667"/><g fill-opacity=".10196"><rect x="3" y="14" width="1" height="1"/><rect x="4" y="14" width="1" height="1"/><rect x="5" y="14" width="1" height="1"/></g><rect x="6" y="14" width="1" height="1" fill-opacity=".094118"/><rect x="7" y="14" width="1" height="1" fill-opacity=".086274"/><rect x="8" y="14" width="1" height="1" fill-opacity=".07451"/><rect x="9" y="14" width="1" height="1" fill-opacity=".066667"/><rect x="10" y="14" width="1" height="1" fill-opacity=".054902"/><rect x="11" y="14" width="1" height="1" fill-opacity=".043137"/><rect x="12" y="14" width="1" height="1" fill-opacity=".031372"/><rect x="13" y="14" width="1" height="1" fill-opacity=".019608"/><rect x="14" y="14" width="1" height="1" fill-opacity=".011765"/></g></g></g></svg>
